<mxfile host="app.diagrams.net" modified="2021-01-24T04:11:11.648Z" agent="5.0 (Windows NT 10.0; Win64; x64) AppleWebKit/537.36 (KHTML, like Gecko) Chrome/87.0.4280.141 Safari/537.36" etag="z2aBO0oWnCyojZSf520a" version="14.2.7" type="github">
  <diagram id="C5RBs43oDa-KdzZeNtuy" name="Page-1">
    <mxGraphModel dx="1422" dy="753" grid="1" gridSize="10" guides="1" tooltips="1" connect="1" arrows="1" fold="1" page="1" pageScale="1" pageWidth="827" pageHeight="1169" math="0" shadow="0">
      <root>
        <mxCell id="WIyWlLk6GJQsqaUBKTNV-0" />
        <mxCell id="WIyWlLk6GJQsqaUBKTNV-1" parent="WIyWlLk6GJQsqaUBKTNV-0" />
        <mxCell id="_lMlOUH5ZzDdXM77UD3x-26" value="topicQueueTable" style="whiteSpace=wrap;html=1;align=center;fontStyle=1;fontSize=13;fillColor=#fff2cc;strokeColor=#d6b656;" vertex="1" parent="WIyWlLk6GJQsqaUBKTNV-1">
          <mxGeometry x="120" y="180" width="120" height="30" as="geometry" />
        </mxCell>
        <mxCell id="_lMlOUH5ZzDdXM77UD3x-56" style="edgeStyle=orthogonalEdgeStyle;rounded=0;orthogonalLoop=1;jettySize=auto;html=1;exitX=1;exitY=0.5;exitDx=0;exitDy=0;entryX=0;entryY=0.5;entryDx=0;entryDy=0;fontSize=13;" edge="1" parent="WIyWlLk6GJQsqaUBKTNV-1" source="_lMlOUH5ZzDdXM77UD3x-27" target="_lMlOUH5ZzDdXM77UD3x-29">
          <mxGeometry relative="1" as="geometry" />
        </mxCell>
        <mxCell id="_lMlOUH5ZzDdXM77UD3x-27" value="topic1" style="whiteSpace=wrap;html=1;align=center;fillColor=#fff2cc;strokeColor=#d6b656;" vertex="1" parent="WIyWlLk6GJQsqaUBKTNV-1">
          <mxGeometry x="120" y="210" width="120" height="30" as="geometry" />
        </mxCell>
        <mxCell id="_lMlOUH5ZzDdXM77UD3x-57" style="edgeStyle=orthogonalEdgeStyle;rounded=0;orthogonalLoop=1;jettySize=auto;html=1;exitX=1;exitY=0.5;exitDx=0;exitDy=0;fontSize=13;" edge="1" parent="WIyWlLk6GJQsqaUBKTNV-1" source="_lMlOUH5ZzDdXM77UD3x-28" target="_lMlOUH5ZzDdXM77UD3x-41">
          <mxGeometry relative="1" as="geometry" />
        </mxCell>
        <mxCell id="_lMlOUH5ZzDdXM77UD3x-28" value="topic2" style="whiteSpace=wrap;html=1;align=center;fillColor=#fff2cc;strokeColor=#d6b656;" vertex="1" parent="WIyWlLk6GJQsqaUBKTNV-1">
          <mxGeometry x="120" y="240" width="120" height="30" as="geometry" />
        </mxCell>
        <mxCell id="_lMlOUH5ZzDdXM77UD3x-53" style="edgeStyle=orthogonalEdgeStyle;rounded=0;orthogonalLoop=1;jettySize=auto;html=1;exitX=1;exitY=0.5;exitDx=0;exitDy=0;entryX=0;entryY=0.5;entryDx=0;entryDy=0;fontSize=13;" edge="1" parent="WIyWlLk6GJQsqaUBKTNV-1" source="_lMlOUH5ZzDdXM77UD3x-29" target="_lMlOUH5ZzDdXM77UD3x-35">
          <mxGeometry relative="1" as="geometry" />
        </mxCell>
        <mxCell id="_lMlOUH5ZzDdXM77UD3x-29" value="QueueData" style="whiteSpace=wrap;html=1;align=center;fontStyle=1;fontSize=13;" vertex="1" parent="WIyWlLk6GJQsqaUBKTNV-1">
          <mxGeometry x="390" y="20" width="100" height="30" as="geometry" />
        </mxCell>
        <mxCell id="_lMlOUH5ZzDdXM77UD3x-30" value="brokerName" style="whiteSpace=wrap;html=1;align=center;" vertex="1" parent="WIyWlLk6GJQsqaUBKTNV-1">
          <mxGeometry x="390" y="50" width="100" height="30" as="geometry" />
        </mxCell>
        <mxCell id="_lMlOUH5ZzDdXM77UD3x-31" value="readQueueNums" style="whiteSpace=wrap;html=1;align=center;" vertex="1" parent="WIyWlLk6GJQsqaUBKTNV-1">
          <mxGeometry x="390" y="80" width="100" height="30" as="geometry" />
        </mxCell>
        <mxCell id="_lMlOUH5ZzDdXM77UD3x-32" value="writeQueueNums" style="whiteSpace=wrap;html=1;align=center;" vertex="1" parent="WIyWlLk6GJQsqaUBKTNV-1">
          <mxGeometry x="390" y="110" width="100" height="30" as="geometry" />
        </mxCell>
        <mxCell id="_lMlOUH5ZzDdXM77UD3x-33" value="perm" style="whiteSpace=wrap;html=1;align=center;" vertex="1" parent="WIyWlLk6GJQsqaUBKTNV-1">
          <mxGeometry x="390" y="140" width="100" height="30" as="geometry" />
        </mxCell>
        <mxCell id="_lMlOUH5ZzDdXM77UD3x-34" value="topicSynFlag" style="whiteSpace=wrap;html=1;align=center;" vertex="1" parent="WIyWlLk6GJQsqaUBKTNV-1">
          <mxGeometry x="390" y="170" width="100" height="30" as="geometry" />
        </mxCell>
        <mxCell id="_lMlOUH5ZzDdXM77UD3x-35" value="QueueData" style="whiteSpace=wrap;html=1;align=center;fontStyle=1;fontSize=13;" vertex="1" parent="WIyWlLk6GJQsqaUBKTNV-1">
          <mxGeometry x="560" y="20" width="100" height="30" as="geometry" />
        </mxCell>
        <mxCell id="_lMlOUH5ZzDdXM77UD3x-36" value="brokerName" style="whiteSpace=wrap;html=1;align=center;" vertex="1" parent="WIyWlLk6GJQsqaUBKTNV-1">
          <mxGeometry x="560" y="50" width="100" height="30" as="geometry" />
        </mxCell>
        <mxCell id="_lMlOUH5ZzDdXM77UD3x-37" value="readQueueNums" style="whiteSpace=wrap;html=1;align=center;" vertex="1" parent="WIyWlLk6GJQsqaUBKTNV-1">
          <mxGeometry x="560" y="80" width="100" height="30" as="geometry" />
        </mxCell>
        <mxCell id="_lMlOUH5ZzDdXM77UD3x-38" value="writeQueueNums" style="whiteSpace=wrap;html=1;align=center;" vertex="1" parent="WIyWlLk6GJQsqaUBKTNV-1">
          <mxGeometry x="560" y="110" width="100" height="30" as="geometry" />
        </mxCell>
        <mxCell id="_lMlOUH5ZzDdXM77UD3x-39" value="perm" style="whiteSpace=wrap;html=1;align=center;" vertex="1" parent="WIyWlLk6GJQsqaUBKTNV-1">
          <mxGeometry x="560" y="140" width="100" height="30" as="geometry" />
        </mxCell>
        <mxCell id="_lMlOUH5ZzDdXM77UD3x-40" value="topicSynFlag" style="whiteSpace=wrap;html=1;align=center;" vertex="1" parent="WIyWlLk6GJQsqaUBKTNV-1">
          <mxGeometry x="560" y="170" width="100" height="30" as="geometry" />
        </mxCell>
        <mxCell id="_lMlOUH5ZzDdXM77UD3x-55" style="edgeStyle=orthogonalEdgeStyle;rounded=0;orthogonalLoop=1;jettySize=auto;html=1;exitX=1;exitY=0.5;exitDx=0;exitDy=0;entryX=0;entryY=0.5;entryDx=0;entryDy=0;fontSize=13;" edge="1" parent="WIyWlLk6GJQsqaUBKTNV-1" source="_lMlOUH5ZzDdXM77UD3x-41" target="_lMlOUH5ZzDdXM77UD3x-47">
          <mxGeometry relative="1" as="geometry" />
        </mxCell>
        <mxCell id="_lMlOUH5ZzDdXM77UD3x-41" value="QueueData" style="whiteSpace=wrap;html=1;align=center;fontStyle=1;fontSize=13;" vertex="1" parent="WIyWlLk6GJQsqaUBKTNV-1">
          <mxGeometry x="390" y="260" width="100" height="30" as="geometry" />
        </mxCell>
        <mxCell id="_lMlOUH5ZzDdXM77UD3x-42" value="brokerName" style="whiteSpace=wrap;html=1;align=center;" vertex="1" parent="WIyWlLk6GJQsqaUBKTNV-1">
          <mxGeometry x="390" y="290" width="100" height="30" as="geometry" />
        </mxCell>
        <mxCell id="_lMlOUH5ZzDdXM77UD3x-43" value="readQueueNums" style="whiteSpace=wrap;html=1;align=center;" vertex="1" parent="WIyWlLk6GJQsqaUBKTNV-1">
          <mxGeometry x="390" y="320" width="100" height="30" as="geometry" />
        </mxCell>
        <mxCell id="_lMlOUH5ZzDdXM77UD3x-44" value="writeQueueNums" style="whiteSpace=wrap;html=1;align=center;" vertex="1" parent="WIyWlLk6GJQsqaUBKTNV-1">
          <mxGeometry x="390" y="350" width="100" height="30" as="geometry" />
        </mxCell>
        <mxCell id="_lMlOUH5ZzDdXM77UD3x-45" value="perm" style="whiteSpace=wrap;html=1;align=center;" vertex="1" parent="WIyWlLk6GJQsqaUBKTNV-1">
          <mxGeometry x="390" y="380" width="100" height="30" as="geometry" />
        </mxCell>
        <mxCell id="_lMlOUH5ZzDdXM77UD3x-46" value="topicSynFlag" style="whiteSpace=wrap;html=1;align=center;" vertex="1" parent="WIyWlLk6GJQsqaUBKTNV-1">
          <mxGeometry x="390" y="410" width="100" height="30" as="geometry" />
        </mxCell>
        <mxCell id="_lMlOUH5ZzDdXM77UD3x-47" value="QueueData" style="whiteSpace=wrap;html=1;align=center;fontStyle=1;fontSize=13;" vertex="1" parent="WIyWlLk6GJQsqaUBKTNV-1">
          <mxGeometry x="560" y="260" width="100" height="30" as="geometry" />
        </mxCell>
        <mxCell id="_lMlOUH5ZzDdXM77UD3x-48" value="brokerName" style="whiteSpace=wrap;html=1;align=center;" vertex="1" parent="WIyWlLk6GJQsqaUBKTNV-1">
          <mxGeometry x="560" y="290" width="100" height="30" as="geometry" />
        </mxCell>
        <mxCell id="_lMlOUH5ZzDdXM77UD3x-49" value="readQueueNums" style="whiteSpace=wrap;html=1;align=center;" vertex="1" parent="WIyWlLk6GJQsqaUBKTNV-1">
          <mxGeometry x="560" y="320" width="100" height="30" as="geometry" />
        </mxCell>
        <mxCell id="_lMlOUH5ZzDdXM77UD3x-50" value="writeQueueNums" style="whiteSpace=wrap;html=1;align=center;" vertex="1" parent="WIyWlLk6GJQsqaUBKTNV-1">
          <mxGeometry x="560" y="350" width="100" height="30" as="geometry" />
        </mxCell>
        <mxCell id="_lMlOUH5ZzDdXM77UD3x-51" value="perm" style="whiteSpace=wrap;html=1;align=center;" vertex="1" parent="WIyWlLk6GJQsqaUBKTNV-1">
          <mxGeometry x="560" y="380" width="100" height="30" as="geometry" />
        </mxCell>
        <mxCell id="_lMlOUH5ZzDdXM77UD3x-52" value="topicSynFlag" style="whiteSpace=wrap;html=1;align=center;" vertex="1" parent="WIyWlLk6GJQsqaUBKTNV-1">
          <mxGeometry x="560" y="410" width="100" height="30" as="geometry" />
        </mxCell>
        <mxCell id="_lMlOUH5ZzDdXM77UD3x-58" value="brokerAddrTable" style="whiteSpace=wrap;html=1;align=center;fontStyle=1;fontSize=13;fillColor=#fff2cc;strokeColor=#d6b656;" vertex="1" parent="WIyWlLk6GJQsqaUBKTNV-1">
          <mxGeometry x="120" y="520" width="120" height="30" as="geometry" />
        </mxCell>
        <mxCell id="_lMlOUH5ZzDdXM77UD3x-83" style="edgeStyle=orthogonalEdgeStyle;rounded=0;orthogonalLoop=1;jettySize=auto;html=1;exitX=1;exitY=0.5;exitDx=0;exitDy=0;entryX=0;entryY=0.5;entryDx=0;entryDy=0;fontSize=13;" edge="1" parent="WIyWlLk6GJQsqaUBKTNV-1" source="_lMlOUH5ZzDdXM77UD3x-59" target="_lMlOUH5ZzDdXM77UD3x-61">
          <mxGeometry relative="1" as="geometry" />
        </mxCell>
        <mxCell id="_lMlOUH5ZzDdXM77UD3x-59" value="brokerName1" style="whiteSpace=wrap;html=1;align=center;fillColor=#fff2cc;strokeColor=#d6b656;" vertex="1" parent="WIyWlLk6GJQsqaUBKTNV-1">
          <mxGeometry x="120" y="550" width="120" height="30" as="geometry" />
        </mxCell>
        <mxCell id="_lMlOUH5ZzDdXM77UD3x-105" style="edgeStyle=orthogonalEdgeStyle;rounded=0;orthogonalLoop=1;jettySize=auto;html=1;exitX=1;exitY=0.5;exitDx=0;exitDy=0;entryX=0;entryY=0.5;entryDx=0;entryDy=0;fontSize=13;" edge="1" parent="WIyWlLk6GJQsqaUBKTNV-1" source="_lMlOUH5ZzDdXM77UD3x-60" target="_lMlOUH5ZzDdXM77UD3x-85">
          <mxGeometry relative="1" as="geometry" />
        </mxCell>
        <mxCell id="_lMlOUH5ZzDdXM77UD3x-60" value="brokerName2" style="whiteSpace=wrap;html=1;align=center;fillColor=#fff2cc;strokeColor=#d6b656;" vertex="1" parent="WIyWlLk6GJQsqaUBKTNV-1">
          <mxGeometry x="120" y="580" width="120" height="30" as="geometry" />
        </mxCell>
        <mxCell id="_lMlOUH5ZzDdXM77UD3x-82" style="edgeStyle=orthogonalEdgeStyle;rounded=0;orthogonalLoop=1;jettySize=auto;html=1;exitX=1;exitY=0.5;exitDx=0;exitDy=0;entryX=0;entryY=0.5;entryDx=0;entryDy=0;fontSize=13;" edge="1" parent="WIyWlLk6GJQsqaUBKTNV-1" source="_lMlOUH5ZzDdXM77UD3x-61" target="_lMlOUH5ZzDdXM77UD3x-72">
          <mxGeometry relative="1" as="geometry" />
        </mxCell>
        <mxCell id="_lMlOUH5ZzDdXM77UD3x-61" value="BrokerData" style="whiteSpace=wrap;html=1;align=center;fontStyle=1;fontSize=13;" vertex="1" parent="WIyWlLk6GJQsqaUBKTNV-1">
          <mxGeometry x="380" y="480" width="120" height="30" as="geometry" />
        </mxCell>
        <mxCell id="_lMlOUH5ZzDdXM77UD3x-62" value="cluster" style="whiteSpace=wrap;html=1;align=center;" vertex="1" parent="WIyWlLk6GJQsqaUBKTNV-1">
          <mxGeometry x="380" y="510" width="120" height="30" as="geometry" />
        </mxCell>
        <mxCell id="_lMlOUH5ZzDdXM77UD3x-63" value="brokerName" style="whiteSpace=wrap;html=1;align=center;" vertex="1" parent="WIyWlLk6GJQsqaUBKTNV-1">
          <mxGeometry x="380" y="540" width="120" height="30" as="geometry" />
        </mxCell>
        <mxCell id="_lMlOUH5ZzDdXM77UD3x-71" style="edgeStyle=orthogonalEdgeStyle;rounded=0;orthogonalLoop=1;jettySize=auto;html=1;exitX=1;exitY=0.5;exitDx=0;exitDy=0;entryX=0;entryY=0.5;entryDx=0;entryDy=0;fontSize=13;" edge="1" parent="WIyWlLk6GJQsqaUBKTNV-1" source="_lMlOUH5ZzDdXM77UD3x-64" target="_lMlOUH5ZzDdXM77UD3x-65">
          <mxGeometry relative="1" as="geometry" />
        </mxCell>
        <mxCell id="_lMlOUH5ZzDdXM77UD3x-64" value="brokerAddrs" style="whiteSpace=wrap;html=1;align=center;" vertex="1" parent="WIyWlLk6GJQsqaUBKTNV-1">
          <mxGeometry x="380" y="570" width="120" height="30" as="geometry" />
        </mxCell>
        <mxCell id="_lMlOUH5ZzDdXM77UD3x-65" value="HashMap" style="whiteSpace=wrap;html=1;align=center;fontStyle=1;fontSize=13;" vertex="1" parent="WIyWlLk6GJQsqaUBKTNV-1">
          <mxGeometry x="550" y="620" width="160" height="30" as="geometry" />
        </mxCell>
        <mxCell id="_lMlOUH5ZzDdXM77UD3x-66" value="brokerId" style="whiteSpace=wrap;html=1;align=center;" vertex="1" parent="WIyWlLk6GJQsqaUBKTNV-1">
          <mxGeometry x="550" y="650" width="80" height="30" as="geometry" />
        </mxCell>
        <mxCell id="_lMlOUH5ZzDdXM77UD3x-68" value="address" style="whiteSpace=wrap;html=1;align=center;" vertex="1" parent="WIyWlLk6GJQsqaUBKTNV-1">
          <mxGeometry x="630" y="650" width="80" height="30" as="geometry" />
        </mxCell>
        <mxCell id="_lMlOUH5ZzDdXM77UD3x-69" value="brokerId" style="whiteSpace=wrap;html=1;align=center;" vertex="1" parent="WIyWlLk6GJQsqaUBKTNV-1">
          <mxGeometry x="550" y="680" width="80" height="30" as="geometry" />
        </mxCell>
        <mxCell id="_lMlOUH5ZzDdXM77UD3x-70" value="address" style="whiteSpace=wrap;html=1;align=center;" vertex="1" parent="WIyWlLk6GJQsqaUBKTNV-1">
          <mxGeometry x="630" y="680" width="80" height="30" as="geometry" />
        </mxCell>
        <mxCell id="_lMlOUH5ZzDdXM77UD3x-72" value="BrokerData" style="whiteSpace=wrap;html=1;align=center;fontStyle=1;fontSize=13;" vertex="1" parent="WIyWlLk6GJQsqaUBKTNV-1">
          <mxGeometry x="700" y="480" width="120" height="30" as="geometry" />
        </mxCell>
        <mxCell id="_lMlOUH5ZzDdXM77UD3x-73" value="cluster" style="whiteSpace=wrap;html=1;align=center;" vertex="1" parent="WIyWlLk6GJQsqaUBKTNV-1">
          <mxGeometry x="700" y="510" width="120" height="30" as="geometry" />
        </mxCell>
        <mxCell id="_lMlOUH5ZzDdXM77UD3x-74" value="brokerName" style="whiteSpace=wrap;html=1;align=center;" vertex="1" parent="WIyWlLk6GJQsqaUBKTNV-1">
          <mxGeometry x="700" y="540" width="120" height="30" as="geometry" />
        </mxCell>
        <mxCell id="_lMlOUH5ZzDdXM77UD3x-75" style="edgeStyle=orthogonalEdgeStyle;rounded=0;orthogonalLoop=1;jettySize=auto;html=1;exitX=1;exitY=0.5;exitDx=0;exitDy=0;entryX=0;entryY=0.5;entryDx=0;entryDy=0;fontSize=13;" edge="1" parent="WIyWlLk6GJQsqaUBKTNV-1" source="_lMlOUH5ZzDdXM77UD3x-76" target="_lMlOUH5ZzDdXM77UD3x-77">
          <mxGeometry relative="1" as="geometry" />
        </mxCell>
        <mxCell id="_lMlOUH5ZzDdXM77UD3x-76" value="brokerAddrs" style="whiteSpace=wrap;html=1;align=center;" vertex="1" parent="WIyWlLk6GJQsqaUBKTNV-1">
          <mxGeometry x="700" y="570" width="120" height="30" as="geometry" />
        </mxCell>
        <mxCell id="_lMlOUH5ZzDdXM77UD3x-77" value="HashMap" style="whiteSpace=wrap;html=1;align=center;fontStyle=1;fontSize=13;" vertex="1" parent="WIyWlLk6GJQsqaUBKTNV-1">
          <mxGeometry x="870" y="620" width="160" height="30" as="geometry" />
        </mxCell>
        <mxCell id="_lMlOUH5ZzDdXM77UD3x-78" value="brokerId" style="whiteSpace=wrap;html=1;align=center;" vertex="1" parent="WIyWlLk6GJQsqaUBKTNV-1">
          <mxGeometry x="870" y="650" width="80" height="30" as="geometry" />
        </mxCell>
        <mxCell id="_lMlOUH5ZzDdXM77UD3x-79" value="address" style="whiteSpace=wrap;html=1;align=center;" vertex="1" parent="WIyWlLk6GJQsqaUBKTNV-1">
          <mxGeometry x="950" y="650" width="80" height="30" as="geometry" />
        </mxCell>
        <mxCell id="_lMlOUH5ZzDdXM77UD3x-80" value="brokerId" style="whiteSpace=wrap;html=1;align=center;" vertex="1" parent="WIyWlLk6GJQsqaUBKTNV-1">
          <mxGeometry x="870" y="680" width="80" height="30" as="geometry" />
        </mxCell>
        <mxCell id="_lMlOUH5ZzDdXM77UD3x-81" value="address" style="whiteSpace=wrap;html=1;align=center;" vertex="1" parent="WIyWlLk6GJQsqaUBKTNV-1">
          <mxGeometry x="950" y="680" width="80" height="30" as="geometry" />
        </mxCell>
        <mxCell id="_lMlOUH5ZzDdXM77UD3x-84" style="edgeStyle=orthogonalEdgeStyle;rounded=0;orthogonalLoop=1;jettySize=auto;html=1;exitX=1;exitY=0.5;exitDx=0;exitDy=0;entryX=0;entryY=0.5;entryDx=0;entryDy=0;fontSize=13;" edge="1" parent="WIyWlLk6GJQsqaUBKTNV-1" source="_lMlOUH5ZzDdXM77UD3x-85" target="_lMlOUH5ZzDdXM77UD3x-95">
          <mxGeometry relative="1" as="geometry" />
        </mxCell>
        <mxCell id="_lMlOUH5ZzDdXM77UD3x-85" value="BrokerData" style="whiteSpace=wrap;html=1;align=center;fontStyle=1;fontSize=13;" vertex="1" parent="WIyWlLk6GJQsqaUBKTNV-1">
          <mxGeometry x="390" y="750" width="120" height="30" as="geometry" />
        </mxCell>
        <mxCell id="_lMlOUH5ZzDdXM77UD3x-86" value="cluster" style="whiteSpace=wrap;html=1;align=center;" vertex="1" parent="WIyWlLk6GJQsqaUBKTNV-1">
          <mxGeometry x="390" y="780" width="120" height="30" as="geometry" />
        </mxCell>
        <mxCell id="_lMlOUH5ZzDdXM77UD3x-87" value="brokerName" style="whiteSpace=wrap;html=1;align=center;" vertex="1" parent="WIyWlLk6GJQsqaUBKTNV-1">
          <mxGeometry x="390" y="810" width="120" height="30" as="geometry" />
        </mxCell>
        <mxCell id="_lMlOUH5ZzDdXM77UD3x-88" style="edgeStyle=orthogonalEdgeStyle;rounded=0;orthogonalLoop=1;jettySize=auto;html=1;exitX=1;exitY=0.5;exitDx=0;exitDy=0;entryX=0;entryY=0.5;entryDx=0;entryDy=0;fontSize=13;" edge="1" parent="WIyWlLk6GJQsqaUBKTNV-1" source="_lMlOUH5ZzDdXM77UD3x-89" target="_lMlOUH5ZzDdXM77UD3x-90">
          <mxGeometry relative="1" as="geometry" />
        </mxCell>
        <mxCell id="_lMlOUH5ZzDdXM77UD3x-89" value="brokerAddrs" style="whiteSpace=wrap;html=1;align=center;" vertex="1" parent="WIyWlLk6GJQsqaUBKTNV-1">
          <mxGeometry x="390" y="840" width="120" height="30" as="geometry" />
        </mxCell>
        <mxCell id="_lMlOUH5ZzDdXM77UD3x-90" value="HashMap" style="whiteSpace=wrap;html=1;align=center;fontStyle=1;fontSize=13;" vertex="1" parent="WIyWlLk6GJQsqaUBKTNV-1">
          <mxGeometry x="560" y="890" width="160" height="30" as="geometry" />
        </mxCell>
        <mxCell id="_lMlOUH5ZzDdXM77UD3x-91" value="brokerId" style="whiteSpace=wrap;html=1;align=center;" vertex="1" parent="WIyWlLk6GJQsqaUBKTNV-1">
          <mxGeometry x="560" y="920" width="80" height="30" as="geometry" />
        </mxCell>
        <mxCell id="_lMlOUH5ZzDdXM77UD3x-92" value="address" style="whiteSpace=wrap;html=1;align=center;" vertex="1" parent="WIyWlLk6GJQsqaUBKTNV-1">
          <mxGeometry x="640" y="920" width="80" height="30" as="geometry" />
        </mxCell>
        <mxCell id="_lMlOUH5ZzDdXM77UD3x-93" value="brokerId" style="whiteSpace=wrap;html=1;align=center;" vertex="1" parent="WIyWlLk6GJQsqaUBKTNV-1">
          <mxGeometry x="560" y="950" width="80" height="30" as="geometry" />
        </mxCell>
        <mxCell id="_lMlOUH5ZzDdXM77UD3x-94" value="address" style="whiteSpace=wrap;html=1;align=center;" vertex="1" parent="WIyWlLk6GJQsqaUBKTNV-1">
          <mxGeometry x="640" y="950" width="80" height="30" as="geometry" />
        </mxCell>
        <mxCell id="_lMlOUH5ZzDdXM77UD3x-95" value="BrokerData" style="whiteSpace=wrap;html=1;align=center;fontStyle=1;fontSize=13;" vertex="1" parent="WIyWlLk6GJQsqaUBKTNV-1">
          <mxGeometry x="710" y="750" width="120" height="30" as="geometry" />
        </mxCell>
        <mxCell id="_lMlOUH5ZzDdXM77UD3x-96" value="cluster" style="whiteSpace=wrap;html=1;align=center;" vertex="1" parent="WIyWlLk6GJQsqaUBKTNV-1">
          <mxGeometry x="710" y="780" width="120" height="30" as="geometry" />
        </mxCell>
        <mxCell id="_lMlOUH5ZzDdXM77UD3x-97" value="brokerName" style="whiteSpace=wrap;html=1;align=center;" vertex="1" parent="WIyWlLk6GJQsqaUBKTNV-1">
          <mxGeometry x="710" y="810" width="120" height="30" as="geometry" />
        </mxCell>
        <mxCell id="_lMlOUH5ZzDdXM77UD3x-98" style="edgeStyle=orthogonalEdgeStyle;rounded=0;orthogonalLoop=1;jettySize=auto;html=1;exitX=1;exitY=0.5;exitDx=0;exitDy=0;entryX=0;entryY=0.5;entryDx=0;entryDy=0;fontSize=13;" edge="1" parent="WIyWlLk6GJQsqaUBKTNV-1" source="_lMlOUH5ZzDdXM77UD3x-99" target="_lMlOUH5ZzDdXM77UD3x-100">
          <mxGeometry relative="1" as="geometry" />
        </mxCell>
        <mxCell id="_lMlOUH5ZzDdXM77UD3x-99" value="brokerAddrs" style="whiteSpace=wrap;html=1;align=center;" vertex="1" parent="WIyWlLk6GJQsqaUBKTNV-1">
          <mxGeometry x="710" y="840" width="120" height="30" as="geometry" />
        </mxCell>
        <mxCell id="_lMlOUH5ZzDdXM77UD3x-100" value="HashMap" style="whiteSpace=wrap;html=1;align=center;fontStyle=1;fontSize=13;" vertex="1" parent="WIyWlLk6GJQsqaUBKTNV-1">
          <mxGeometry x="880" y="890" width="160" height="30" as="geometry" />
        </mxCell>
        <mxCell id="_lMlOUH5ZzDdXM77UD3x-101" value="brokerId" style="whiteSpace=wrap;html=1;align=center;" vertex="1" parent="WIyWlLk6GJQsqaUBKTNV-1">
          <mxGeometry x="880" y="920" width="80" height="30" as="geometry" />
        </mxCell>
        <mxCell id="_lMlOUH5ZzDdXM77UD3x-102" value="address" style="whiteSpace=wrap;html=1;align=center;" vertex="1" parent="WIyWlLk6GJQsqaUBKTNV-1">
          <mxGeometry x="960" y="920" width="80" height="30" as="geometry" />
        </mxCell>
        <mxCell id="_lMlOUH5ZzDdXM77UD3x-103" value="brokerId" style="whiteSpace=wrap;html=1;align=center;" vertex="1" parent="WIyWlLk6GJQsqaUBKTNV-1">
          <mxGeometry x="880" y="950" width="80" height="30" as="geometry" />
        </mxCell>
        <mxCell id="_lMlOUH5ZzDdXM77UD3x-104" value="address" style="whiteSpace=wrap;html=1;align=center;" vertex="1" parent="WIyWlLk6GJQsqaUBKTNV-1">
          <mxGeometry x="960" y="950" width="80" height="30" as="geometry" />
        </mxCell>
        <mxCell id="_lMlOUH5ZzDdXM77UD3x-106" value="clusterAddrTable" style="whiteSpace=wrap;html=1;align=center;fontStyle=1;fontSize=13;fillColor=#fff2cc;strokeColor=#d6b656;" vertex="1" parent="WIyWlLk6GJQsqaUBKTNV-1">
          <mxGeometry x="130" y="1070" width="120" height="30" as="geometry" />
        </mxCell>
        <mxCell id="_lMlOUH5ZzDdXM77UD3x-118" style="edgeStyle=orthogonalEdgeStyle;rounded=0;orthogonalLoop=1;jettySize=auto;html=1;exitX=1;exitY=0.5;exitDx=0;exitDy=0;entryX=0;entryY=0.5;entryDx=0;entryDy=0;fontSize=13;" edge="1" parent="WIyWlLk6GJQsqaUBKTNV-1" source="_lMlOUH5ZzDdXM77UD3x-107" target="_lMlOUH5ZzDdXM77UD3x-109">
          <mxGeometry relative="1" as="geometry" />
        </mxCell>
        <mxCell id="_lMlOUH5ZzDdXM77UD3x-107" value="clusterName1" style="whiteSpace=wrap;html=1;align=center;fillColor=#fff2cc;strokeColor=#d6b656;" vertex="1" parent="WIyWlLk6GJQsqaUBKTNV-1">
          <mxGeometry x="130" y="1100" width="120" height="30" as="geometry" />
        </mxCell>
        <mxCell id="_lMlOUH5ZzDdXM77UD3x-119" style="edgeStyle=orthogonalEdgeStyle;rounded=0;orthogonalLoop=1;jettySize=auto;html=1;exitX=1;exitY=0.5;exitDx=0;exitDy=0;entryX=0;entryY=0.5;entryDx=0;entryDy=0;fontSize=13;" edge="1" parent="WIyWlLk6GJQsqaUBKTNV-1" source="_lMlOUH5ZzDdXM77UD3x-108" target="_lMlOUH5ZzDdXM77UD3x-114">
          <mxGeometry relative="1" as="geometry" />
        </mxCell>
        <mxCell id="_lMlOUH5ZzDdXM77UD3x-108" value="clusterName2" style="whiteSpace=wrap;html=1;align=center;fillColor=#fff2cc;strokeColor=#d6b656;" vertex="1" parent="WIyWlLk6GJQsqaUBKTNV-1">
          <mxGeometry x="130" y="1130" width="120" height="30" as="geometry" />
        </mxCell>
        <mxCell id="_lMlOUH5ZzDdXM77UD3x-109" value="" style="ellipse;whiteSpace=wrap;html=1;fontSize=13;align=center;" vertex="1" parent="WIyWlLk6GJQsqaUBKTNV-1">
          <mxGeometry x="354" y="1010" width="196" height="100" as="geometry" />
        </mxCell>
        <mxCell id="_lMlOUH5ZzDdXM77UD3x-110" value="brokerName" style="ellipse;whiteSpace=wrap;html=1;fontSize=13;align=center;" vertex="1" parent="WIyWlLk6GJQsqaUBKTNV-1">
          <mxGeometry x="360" y="1037.5" width="84" height="45" as="geometry" />
        </mxCell>
        <mxCell id="_lMlOUH5ZzDdXM77UD3x-112" value="brokerName" style="ellipse;whiteSpace=wrap;html=1;fontSize=13;align=center;" vertex="1" parent="WIyWlLk6GJQsqaUBKTNV-1">
          <mxGeometry x="460" y="1037.5" width="84" height="45" as="geometry" />
        </mxCell>
        <mxCell id="_lMlOUH5ZzDdXM77UD3x-113" value="Set" style="text;html=1;resizable=0;autosize=1;align=center;verticalAlign=middle;points=[];fillColor=none;strokeColor=none;rounded=0;fontSize=13;" vertex="1" parent="WIyWlLk6GJQsqaUBKTNV-1">
          <mxGeometry x="432" y="1017.5" width="40" height="20" as="geometry" />
        </mxCell>
        <mxCell id="_lMlOUH5ZzDdXM77UD3x-114" value="" style="ellipse;whiteSpace=wrap;html=1;fontSize=13;align=center;" vertex="1" parent="WIyWlLk6GJQsqaUBKTNV-1">
          <mxGeometry x="354" y="1140" width="196" height="100" as="geometry" />
        </mxCell>
        <mxCell id="_lMlOUH5ZzDdXM77UD3x-115" value="brokerName" style="ellipse;whiteSpace=wrap;html=1;fontSize=13;align=center;" vertex="1" parent="WIyWlLk6GJQsqaUBKTNV-1">
          <mxGeometry x="360" y="1167.5" width="84" height="45" as="geometry" />
        </mxCell>
        <mxCell id="_lMlOUH5ZzDdXM77UD3x-116" value="brokerName" style="ellipse;whiteSpace=wrap;html=1;fontSize=13;align=center;" vertex="1" parent="WIyWlLk6GJQsqaUBKTNV-1">
          <mxGeometry x="460" y="1167.5" width="84" height="45" as="geometry" />
        </mxCell>
        <mxCell id="_lMlOUH5ZzDdXM77UD3x-117" value="Set" style="text;html=1;resizable=0;autosize=1;align=center;verticalAlign=middle;points=[];fillColor=none;strokeColor=none;rounded=0;fontSize=13;" vertex="1" parent="WIyWlLk6GJQsqaUBKTNV-1">
          <mxGeometry x="432" y="1147.5" width="40" height="20" as="geometry" />
        </mxCell>
        <mxCell id="_lMlOUH5ZzDdXM77UD3x-120" value="brokerLiveTable" style="whiteSpace=wrap;html=1;align=center;fontStyle=1;fontSize=13;fillColor=#fff2cc;strokeColor=#d6b656;" vertex="1" parent="WIyWlLk6GJQsqaUBKTNV-1">
          <mxGeometry x="140" y="1410" width="120" height="30" as="geometry" />
        </mxCell>
        <mxCell id="_lMlOUH5ZzDdXM77UD3x-134" style="edgeStyle=orthogonalEdgeStyle;rounded=0;orthogonalLoop=1;jettySize=auto;html=1;exitX=1;exitY=0.5;exitDx=0;exitDy=0;entryX=0;entryY=0.5;entryDx=0;entryDy=0;fontSize=13;" edge="1" parent="WIyWlLk6GJQsqaUBKTNV-1" source="_lMlOUH5ZzDdXM77UD3x-121" target="_lMlOUH5ZzDdXM77UD3x-123">
          <mxGeometry relative="1" as="geometry" />
        </mxCell>
        <mxCell id="_lMlOUH5ZzDdXM77UD3x-121" value="brokerAddr1" style="whiteSpace=wrap;html=1;align=center;fillColor=#fff2cc;strokeColor=#d6b656;" vertex="1" parent="WIyWlLk6GJQsqaUBKTNV-1">
          <mxGeometry x="140" y="1440" width="120" height="30" as="geometry" />
        </mxCell>
        <mxCell id="_lMlOUH5ZzDdXM77UD3x-135" style="edgeStyle=orthogonalEdgeStyle;rounded=0;orthogonalLoop=1;jettySize=auto;html=1;exitX=1;exitY=0.5;exitDx=0;exitDy=0;entryX=0;entryY=0.5;entryDx=0;entryDy=0;fontSize=13;" edge="1" parent="WIyWlLk6GJQsqaUBKTNV-1" source="_lMlOUH5ZzDdXM77UD3x-122" target="_lMlOUH5ZzDdXM77UD3x-129">
          <mxGeometry relative="1" as="geometry" />
        </mxCell>
        <mxCell id="_lMlOUH5ZzDdXM77UD3x-122" value="brokerAddr2" style="whiteSpace=wrap;html=1;align=center;fillColor=#fff2cc;strokeColor=#d6b656;" vertex="1" parent="WIyWlLk6GJQsqaUBKTNV-1">
          <mxGeometry x="140" y="1470" width="120" height="30" as="geometry" />
        </mxCell>
        <mxCell id="_lMlOUH5ZzDdXM77UD3x-123" value="BrokerLiveInfo" style="whiteSpace=wrap;html=1;align=center;fontStyle=1;fontSize=13;" vertex="1" parent="WIyWlLk6GJQsqaUBKTNV-1">
          <mxGeometry x="380" y="1290" width="140" height="30" as="geometry" />
        </mxCell>
        <mxCell id="_lMlOUH5ZzDdXM77UD3x-124" value="lastUpdateTimestamp" style="whiteSpace=wrap;html=1;align=center;" vertex="1" parent="WIyWlLk6GJQsqaUBKTNV-1">
          <mxGeometry x="380" y="1320" width="140" height="30" as="geometry" />
        </mxCell>
        <mxCell id="_lMlOUH5ZzDdXM77UD3x-125" value="dataVersion" style="whiteSpace=wrap;html=1;align=center;" vertex="1" parent="WIyWlLk6GJQsqaUBKTNV-1">
          <mxGeometry x="380" y="1350" width="140" height="30" as="geometry" />
        </mxCell>
        <mxCell id="_lMlOUH5ZzDdXM77UD3x-126" value="channel" style="whiteSpace=wrap;html=1;align=center;" vertex="1" parent="WIyWlLk6GJQsqaUBKTNV-1">
          <mxGeometry x="380" y="1380" width="140" height="30" as="geometry" />
        </mxCell>
        <mxCell id="_lMlOUH5ZzDdXM77UD3x-127" value="haServerAddr" style="whiteSpace=wrap;html=1;align=center;" vertex="1" parent="WIyWlLk6GJQsqaUBKTNV-1">
          <mxGeometry x="380" y="1410" width="140" height="30" as="geometry" />
        </mxCell>
        <mxCell id="_lMlOUH5ZzDdXM77UD3x-129" value="BrokerLiveInfo" style="whiteSpace=wrap;html=1;align=center;fontStyle=1;fontSize=13;" vertex="1" parent="WIyWlLk6GJQsqaUBKTNV-1">
          <mxGeometry x="380" y="1480" width="140" height="30" as="geometry" />
        </mxCell>
        <mxCell id="_lMlOUH5ZzDdXM77UD3x-130" value="lastUpdateTimestamp" style="whiteSpace=wrap;html=1;align=center;" vertex="1" parent="WIyWlLk6GJQsqaUBKTNV-1">
          <mxGeometry x="380" y="1510" width="140" height="30" as="geometry" />
        </mxCell>
        <mxCell id="_lMlOUH5ZzDdXM77UD3x-131" value="dataVersion" style="whiteSpace=wrap;html=1;align=center;" vertex="1" parent="WIyWlLk6GJQsqaUBKTNV-1">
          <mxGeometry x="380" y="1540" width="140" height="30" as="geometry" />
        </mxCell>
        <mxCell id="_lMlOUH5ZzDdXM77UD3x-132" value="channel" style="whiteSpace=wrap;html=1;align=center;" vertex="1" parent="WIyWlLk6GJQsqaUBKTNV-1">
          <mxGeometry x="380" y="1570" width="140" height="30" as="geometry" />
        </mxCell>
        <mxCell id="_lMlOUH5ZzDdXM77UD3x-133" value="haServerAddr" style="whiteSpace=wrap;html=1;align=center;" vertex="1" parent="WIyWlLk6GJQsqaUBKTNV-1">
          <mxGeometry x="380" y="1600" width="140" height="30" as="geometry" />
        </mxCell>
        <mxCell id="_lMlOUH5ZzDdXM77UD3x-136" value="filterServerTable" style="whiteSpace=wrap;html=1;align=center;fontStyle=1;fontSize=13;fillColor=#fff2cc;strokeColor=#d6b656;" vertex="1" parent="WIyWlLk6GJQsqaUBKTNV-1">
          <mxGeometry x="590" y="1380" width="120" height="30" as="geometry" />
        </mxCell>
        <mxCell id="_lMlOUH5ZzDdXM77UD3x-145" style="edgeStyle=orthogonalEdgeStyle;rounded=0;orthogonalLoop=1;jettySize=auto;html=1;exitX=1;exitY=0.5;exitDx=0;exitDy=0;entryX=0;entryY=0.5;entryDx=0;entryDy=0;fontSize=13;" edge="1" parent="WIyWlLk6GJQsqaUBKTNV-1" source="_lMlOUH5ZzDdXM77UD3x-137" target="_lMlOUH5ZzDdXM77UD3x-139">
          <mxGeometry relative="1" as="geometry" />
        </mxCell>
        <mxCell id="_lMlOUH5ZzDdXM77UD3x-137" value="brokerAddr1" style="whiteSpace=wrap;html=1;align=center;fillColor=#fff2cc;strokeColor=#d6b656;" vertex="1" parent="WIyWlLk6GJQsqaUBKTNV-1">
          <mxGeometry x="590" y="1410" width="120" height="30" as="geometry" />
        </mxCell>
        <mxCell id="_lMlOUH5ZzDdXM77UD3x-146" style="edgeStyle=orthogonalEdgeStyle;rounded=0;orthogonalLoop=1;jettySize=auto;html=1;exitX=1;exitY=0.5;exitDx=0;exitDy=0;entryX=0;entryY=0.5;entryDx=0;entryDy=0;fontSize=13;" edge="1" parent="WIyWlLk6GJQsqaUBKTNV-1" source="_lMlOUH5ZzDdXM77UD3x-138" target="_lMlOUH5ZzDdXM77UD3x-143">
          <mxGeometry relative="1" as="geometry" />
        </mxCell>
        <mxCell id="_lMlOUH5ZzDdXM77UD3x-138" value="brokerAddr2" style="whiteSpace=wrap;html=1;align=center;fillColor=#fff2cc;strokeColor=#d6b656;" vertex="1" parent="WIyWlLk6GJQsqaUBKTNV-1">
          <mxGeometry x="590" y="1440" width="120" height="30" as="geometry" />
        </mxCell>
        <mxCell id="_lMlOUH5ZzDdXM77UD3x-141" style="edgeStyle=orthogonalEdgeStyle;rounded=0;orthogonalLoop=1;jettySize=auto;html=1;exitX=1;exitY=0.5;exitDx=0;exitDy=0;entryX=0;entryY=0.5;entryDx=0;entryDy=0;fontSize=13;" edge="1" parent="WIyWlLk6GJQsqaUBKTNV-1" source="_lMlOUH5ZzDdXM77UD3x-139" target="_lMlOUH5ZzDdXM77UD3x-140">
          <mxGeometry relative="1" as="geometry" />
        </mxCell>
        <mxCell id="_lMlOUH5ZzDdXM77UD3x-139" value="Filter Server" style="whiteSpace=wrap;html=1;align=center;" vertex="1" parent="WIyWlLk6GJQsqaUBKTNV-1">
          <mxGeometry x="770" y="1380" width="120" height="30" as="geometry" />
        </mxCell>
        <mxCell id="_lMlOUH5ZzDdXM77UD3x-140" value="Filter Server" style="whiteSpace=wrap;html=1;align=center;" vertex="1" parent="WIyWlLk6GJQsqaUBKTNV-1">
          <mxGeometry x="920" y="1380" width="120" height="30" as="geometry" />
        </mxCell>
        <mxCell id="_lMlOUH5ZzDdXM77UD3x-142" style="edgeStyle=orthogonalEdgeStyle;rounded=0;orthogonalLoop=1;jettySize=auto;html=1;exitX=1;exitY=0.5;exitDx=0;exitDy=0;entryX=0;entryY=0.5;entryDx=0;entryDy=0;fontSize=13;" edge="1" parent="WIyWlLk6GJQsqaUBKTNV-1" source="_lMlOUH5ZzDdXM77UD3x-143" target="_lMlOUH5ZzDdXM77UD3x-144">
          <mxGeometry relative="1" as="geometry" />
        </mxCell>
        <mxCell id="_lMlOUH5ZzDdXM77UD3x-143" value="Filter Server" style="whiteSpace=wrap;html=1;align=center;" vertex="1" parent="WIyWlLk6GJQsqaUBKTNV-1">
          <mxGeometry x="770" y="1460" width="120" height="30" as="geometry" />
        </mxCell>
        <mxCell id="_lMlOUH5ZzDdXM77UD3x-144" value="Filter Server" style="whiteSpace=wrap;html=1;align=center;" vertex="1" parent="WIyWlLk6GJQsqaUBKTNV-1">
          <mxGeometry x="920" y="1460" width="120" height="30" as="geometry" />
        </mxCell>
      </root>
    </mxGraphModel>
  </diagram>
</mxfile>
